<?xml version="1.0" standalone="no"?>
<!DOCTYPE svg PUBLIC "-//W3C//DTD SVG 20010904//EN"
 "http://www.w3.org/TR/2001/REC-SVG-20010904/DTD/svg10.dtd">
<svg version="1.0" xmlns="http://www.w3.org/2000/svg"
 width="500.000000pt" height="500.000000pt" viewBox="0 0 500.000000 500.000000"
 preserveAspectRatio="xMidYMid meet">

<g transform="translate(0.000000,500.000000) scale(0.100000,-0.100000)"
fill="#000000" stroke="none">
<path d="M3111 2979 l-181 -192 52 -56 c29 -31 96 -102 149 -158 l97 -103 301
320 c166 176 313 333 327 350 l26 30 -295 0 -295 0 -181 -191z" fill="#e23623"/>
<path d="M1994 2894 c-75 -80 -159 -266 -277 -609 -70 -205 -125 -341 -143
-356 -19 -15 -18 32 2 398 9 158 17 337 18 398 1 95 -1 110 -16 113 -13 2 -18
-6 -22 -40 -10 -80 -37 -642 -39 -808 l-2 -165 27 -3 c35 -4 42 9 158 318 165
442 263 666 316 730 26 30 28 31 41 14 20 -27 16 -146 -17 -569 -17 -208 -30
-405 -30 -436 0 -59 -9 -77 -74 -146 l-30 -33 46 0 46 0 4 -110 c2 -64 8 -114
15 -121 25 -25 33 3 33 117 l0 114 183 0 184 0 -5 -30 c-12 -83 30 -150 93
-150 70 0 107 72 120 238 l7 82 115 120 114 120 -147 155 c-81 85 -150 155
-154 155 -3 0 -82 -81 -175 -180 -177 -189 -195 -200 -195 -125 0 31 2 33 45
39 82 11 112 44 61 67 -36 17 -94 2 -128 -31 -36 -37 -39 -102 -7 -137 l22
-22 -59 -67 c-32 -37 -60 -62 -62 -56 -2 6 11 185 28 399 37 447 38 625 6 649
-33 24 -58 16 -102 -32z m271 -734 c-3 -5 -16 -10 -28 -10 -18 0 -19 2 -7 10
20 13 43 13 35 0z m285 -515 c-13 -69 -34 -107 -54 -99 -22 8 -38 57 -34 105
2 37 7 45 25 47 13 2 33 18 45 35 l23 32 3 -30 c2 -16 -1 -56 -8 -90z"/>
<path d="M2252 2801 c23 -27 198 -214 388 -415 l345 -366 300 0 299 0 -60 63
c-34 34 -210 221 -393 415 l-332 352 -296 0 -295 0 44 -49z" fill="#e23623"/>
</g>
<g transform="translate(0.000000,500.000000) scale(0.100000,-0.100000)"
fill="#000000" stroke="none">
<path d="M2469 2303 c-47 -49 -152 -160 -234 -248 -82 -88 -192 -204 -244
-257 l-96 -98 304 0 303 0 127 133 c70 72 151 158 180 189 l54 58 -48 52 c-96
104 -247 258 -253 258 -4 0 -46 -39 -93 -87z" fill="#e23623"/>
</g>
<g transform="translate(0.000000,500.000000) scale(0.100000,-0.100000)"
fill="#000000" stroke="none">
<path d="M1994 2894 c-75 -80 -159 -266 -277 -609 -70 -205 -125 -341 -143
-356 -19 -15 -18 32 2 398 9 158 17 337 18 398 1 95 -1 110 -16 113 -13 2 -18
-6 -22 -40 -10 -80 -37 -642 -39 -808 l-2 -165 27 -3 c35 -4 42 9 158 318 165
442 263 666 316 730 26 30 28 31 41 14 20 -27 16 -143 -17 -568 -33 -415 -44
-826 -23 -847 27 -27 33 4 33 156 0 88 15 342 36 592 41 501 43 684 10 709
-33 24 -58 16 -102 -32z" fill="#000000"/>
<path d="M2204 2186 c-43 -19 -64 -53 -64 -101 0 -30 6 -47 23 -63 43 -41 158
-22 234 38 l25 20 22 -33 c17 -25 30 -33 60 -35 25 -2 44 2 57 14 18 17 19 16
19 -21 0 -30 -9 -49 -46 -94 -52 -62 -112 -178 -121 -234 -14 -88 26 -157 92
-157 80 0 118 93 117 280 0 63 4 131 10 150 7 22 33 56 72 92 73 68 57 78 -20
12 l-54 -46 0 86 c0 79 -2 86 -20 86 -13 0 -21 -9 -25 -27 -16 -76 -26 -100
-49 -112 -36 -20 -46 -6 -46 60 0 56 -1 59 -25 59 -20 0 -27 -6 -31 -28 -7
-33 -79 -82 -151 -103 -57 -16 -93 5 -93 56 0 30 3 35 23 35 40 0 98 21 104
37 14 37 -54 54 -113 29z m61 -26 c-3 -5 -16 -10 -28 -10 -18 0 -19 2 -7 10
20 13 43 13 35 0z m301 -372 c-12 -167 -37 -255 -70 -242 -45 17 -47 147 -3
236 27 56 63 108 74 108 3 0 3 -46 -1 -102z" fill="#000000"/>
</g>
</svg>
